<svg width="60" height="49" viewBox="0 0 60 49" fill="none" xmlns="http://www.w3.org/2000/svg">
<g id="Vault Icon">
<path id="Vector" d="M55.2911 12.0134H4.64408C3.04571 12.0134 1.74997 13.3209 1.74997 14.9339V34.7671C1.74997 36.38 3.04571 37.6875 4.64408 37.6875H55.2911C56.8895 37.6875 58.1852 36.38 58.1852 34.7671V14.9339C58.1852 13.3209 56.8895 12.0134 55.2911 12.0134Z" stroke="#F6C90E" stroke-width="2.07943" stroke-linecap="round" stroke-linejoin="round"/>
<path id="Vector_2" d="M6.51311 37.6876H53.4222V44.7804C53.4222 46.3922 52.1254 47.7008 50.5281 47.7008H9.40723C7.80997 47.7008 6.51311 46.3922 6.51311 44.7804V37.6876Z" stroke="#F6C90E" stroke-width="2.07943" stroke-linecap="round" stroke-linejoin="round"/>
<path id="Vector_3" d="M9.40723 2H50.5281C52.1254 2 53.4222 3.30866 53.4222 4.92047V12.0133H6.51311V4.92047C6.51311 3.30866 7.80997 2 9.40723 2Z" stroke="#F6C90E" stroke-width="2.07943" stroke-linecap="round" stroke-linejoin="round"/>
<path id="Vector_4" d="M14.1125 18.442H9.56768C8.76849 18.442 8.12062 19.0957 8.12062 19.9022V24.4884C8.12062 25.2948 8.76849 25.9486 9.56768 25.9486H14.1125C14.9116 25.9486 15.5595 25.2948 15.5595 24.4884V19.9022C15.5595 19.0957 14.9116 18.442 14.1125 18.442Z" stroke="#F6C90E" stroke-width="2.07943" stroke-linecap="round" stroke-linejoin="round"/>
</g>
</svg>
